<?xml version="1.0" standalone="no"?>
<!DOCTYPE svg PUBLIC "-//W3C//DTD SVG 20010904//EN"
 "http://www.w3.org/TR/2001/REC-SVG-20010904/DTD/svg10.dtd">
<svg version="1.0" xmlns="http://www.w3.org/2000/svg"
 width="490.000000pt" height="490.000000pt" viewBox="0 0 490.000000 490.000000"
 preserveAspectRatio="xMidYMid meet">
<metadata>
Created by potrace 1.11, written by Peter Selinger 2001-2013
</metadata>
<g transform="translate(0.000000,490.000000) scale(0.100000,-0.100000)"
fill="#000000" stroke="none">
<path d="M2340 4831 l-35 -6 0 -255 0 -255 45 1 c25 1 50 2 56 3 8 1 11 79 10
259 -1 288 5 268 -76 253z"/>
<path d="M2485 4588 c1 -139 2 -257 3 -263 2 -11 97 -13 108 -2 6 6 8 497 2
502 -2 1 -28 6 -59 9 l-56 7 2 -253z"/>
<path d="M2125 4759 c-156 -80 -286 -213 -346 -357 -11 -26 -24 -55 -30 -64
-11 -21 -31 -20 258 -22 134 0 214 3 216 9 9 27 1 469 -8 472 -6 2 -46 -15
-90 -38z"/>
<path d="M2674 4563 c0 -131 3 -240 7 -243 6 -4 440 -5 471 -1 11 1 -48 126
-89 189 -48 71 -134 158 -207 206 -52 34 -156 86 -174 86 -4 0 -8 -107 -8
-237z"/>
<path d="M1725 4240 c-2 -3 -6 -30 -10 -61 l-6 -54 258 0 258 0 0 58 c0 54 -1
57 -25 58 -155 3 -473 3 -475 -1z"/>
<path d="M2303 4234 c-2 -6 -3 -33 -1 -60 l3 -49 45 -1 c67 0 69 1 66 63 l-2
56 -53 1 c-32 1 -55 -4 -58 -10z"/>
<path d="M2503 4242 c-20 -3 -22 -9 -20 -60 l2 -57 55 0 55 0 5 35 c10 61 0
83 -40 84 -19 1 -45 0 -57 -2z"/>
<path d="M2688 4242 c-12 -2 -15 -15 -14 -55 0 -29 4 -54 8 -57 4 -3 118 -5
255 -5 l248 0 -2 54 c-2 30 -5 56 -7 58 -5 5 -465 10 -488 5z"/>
<path d="M1715 3998 c4 -29 9 -56 11 -59 5 -8 494 -9 495 -1 1 4 2 31 3 60 l2
52 -259 0 -258 0 6 -52z"/>
<path d="M2300 3991 l0 -60 58 2 57 2 1 58 0 57 -58 0 -58 0 0 -59z"/>
<path d="M2483 3991 l0 -59 60 1 60 2 0 55 0 55 -60 3 -60 3 0 -60z"/>
<path d="M2676 3998 c1 -29 2 -56 3 -59 1 -8 490 -9 495 -1 2 4 7 31 11 60 l6
52 -258 0 -259 0 2 -52z"/>
<path d="M1750 3850 c0 -5 11 -34 24 -65 72 -162 212 -304 370 -375 38 -16 71
-30 75 -30 3 0 6 107 6 238 l0 237 -238 2 c-142 1 -237 -1 -237 -7z"/>
<path d="M2300 3611 c0 -137 3 -252 8 -254 4 -3 30 -8 58 -12 l50 -6 0 258 -1
258 -57 3 -58 3 0 -250z"/>
<path d="M2484 3602 l1 -257 30 2 c65 3 85 8 86 20 0 7 0 108 0 223 0 116 0
223 0 239 -1 29 -2 29 -60 30 l-58 0 1 -257z"/>
<path d="M2679 3852 c-6 -31 -3 -472 3 -472 4 0 32 11 63 24 163 73 308 218
381 381 13 31 24 59 24 64 0 10 -469 14 -471 3z"/>
<path d="M1656 2718 c1 -172 2 -315 3 -318 0 -3 66 -4 146 -3 l145 1 0 -46 c4
-460 0 -1643 -4 -1651 -4 -5 -57 -10 -124 -10 -64 0 -128 0 -142 0 l-26 -1 1
-315 0 -315 281 0 281 0 0 1485 0 1485 -281 0 -282 0 2 -312z"/>
<path d="M2303 1545 l0 -1485 52 0 53 0 0 1485 0 1485 -53 0 -52 0 0 -1485z"/>
<path d="M2491 1545 l1 -1485 50 0 49 0 -2 1485 -2 1485 -48 0 -49 0 1 -1485z"/>
<path d="M2672 1545 l0 -1485 284 0 c156 0 284 3 285 8 5 42 2 607 -3 615 -4
6 -58 10 -150 9 l-143 -1 0 853 0 854 144 -2 c114 -1 145 2 149 13 4 11 7 529
3 604 -1 16 -22 17 -285 17 l-284 0 0 -1485z"/>
</g>
</svg>
